HIERARCHY
ROOT pelvis
{
  OFFSET 0 100 0
  CHANNELS 6 Xposition Yposition Zposition Zrotation Xrotation Yrotation
  JOINT pelvis_right_femur
  {
    OFFSET -10.78128 -3.44521 -0.5502486
    CHANNELS 3 Zrotation Xrotation Yrotation
    JOINT right_femur_tibia
    {
      OFFSET -0.8047443 -44.0398 -0.1307829
      CHANNELS 3 Zrotation Xrotation Yrotation
      JOINT right_tibia_foot
      {
        OFFSET 3.006224 -47.83518 -5
        CHANNELS 3 Zrotation Xrotation Yrotation
        End Site
        {
          OFFSET 0 -5 15
        }
      }
    }
  }
  JOINT pelvis_left_femur
  {
    OFFSET 10.78128 -3.44521 -0.5502486
    CHANNELS 3 Zrotation Xrotation Yrotation
    JOINT left_femur_tibia
    {
      OFFSET 0.8047443 -44.0398 -0.1307829
      CHANNELS 3 Zrotation Xrotation Yrotation
      JOINT left_tibia_foot
      {
        OFFSET -4.370144 -48.10324 -4.275266
        CHANNELS 3 Zrotation Xrotation Yrotation
        End Site
        {
          OFFSET 0 -5 15
        }
      }
    }
  }
  JOINT pelvis_spine1
  {
    OFFSET 0 6.468898 -3.129235
    CHANNELS 3 Zrotation Xrotation Yrotation
    JOINT spine1
    {
      OFFSET 0 23.15396 4.99043
      CHANNELS 3 Zrotation Xrotation Yrotation
      JOINT spine2
      {
        OFFSET 0 20.79997 -5.064912
        CHANNELS 3 Zrotation Xrotation Yrotation
        JOINT neck
        {
          OFFSET 0 14.38658 9.616178
          CHANNELS 3 Zrotation Xrotation Yrotation
          End Site
          {
            OFFSET 0 20 0
          }
        }
      }
      JOINT right_manubrium
      {
        OFFSET -5.722621 16.35077 3.967754
        CHANNELS 3 Zrotation Xrotation Yrotation
        JOINT right_clavicle
        {
          OFFSET -13.16364 1.694482 -4.693211
          CHANNELS 3 Zrotation Xrotation Yrotation
          JOINT right_humerus
          {
            OFFSET -28.5034 -0.3100689 -2.792744
            CHANNELS 3 Zrotation Xrotation Yrotation
            JOINT right_radius
            {
              OFFSET -25.15693 0.02248979 -1.271978
              CHANNELS 3 Zrotation Xrotation Yrotation
              End Site
              {
                OFFSET -15 0 0
              }
            }
          }
        }
      }
      JOINT left_manubrium
      {
        OFFSET 5.722621 16.35077 3.967754
        CHANNELS 3 Zrotation Xrotation Yrotation
        JOINT left_clavicle
        {
          OFFSET 13.16364 1.694482 -4.693211
          CHANNELS 3 Zrotation Xrotation Yrotation
          JOINT left_humerus
          {
            OFFSET 29.39168 -1.063119 -2.237045
            CHANNELS 3 Zrotation Xrotation Yrotation
            JOINT left_radius
            {
              OFFSET 24.59957 -0.9528479 0.9047498
              CHANNELS 3 Zrotation Xrotation Yrotation
              End Site
              {
                OFFSET 15 -0 -0
              }
            }
          }
        }
      }
    }
  }
}
MOTION
Frames: 23
Frame Time: 0.0416666666667
-96.9399 85.08344 278.0661 4.069081 -6.453115 35.88763 4.417207 13.04213 -0.6058116 -0 24.20413 -0 -11.75418 -7.691576 1.898509 1.711271 -13.06833 -2.899969 -0 17.76863 -0 9.20223 3.90812 13.0366 0.3546418 -7.997222 8.853324 1.181717 20.0236 -8.071875 -0.9857681 18.11267 4.462932 3.605634 -17.57405 2.500348 5.149841 -31.00688 16.17213 85.62651 25.66597 -15.09013 -0 0 28.61748 -27.81731 24.08465 14.34958 1.704423 -27.93725 -10.90355 -93.02305 2.298905 39.70891 0 0 -8.064205 16.23782 17.96752 -6.193038
-92.75585 85.12037 281.478 3.980534 -6.507964 35.1031 4.417207 13.04213 -0.6058116 -0 24.20413 -0 -11.75418 -7.691576 1.898509 1.711271 -13.06833 -2.899969 -0 17.76863 -0 9.20223 3.90812 13.0366 0.3546418 -7.997222 8.853324 1.181717 20.0236 -8.071875 -0.9857681 18.11267 4.462932 3.605634 -17.57405 2.500348 5.149841 -31.00688 16.17213 85.62651 25.66597 -15.09013 -0 0 28.61748 -27.81731 24.08465 14.34958 1.704423 -27.93725 -10.90355 -93.02305 2.298905 39.70891 0 0 -8.064205 16.23782 17.96752 -6.193038
-88.61873 85.1573 284.9467 3.89123 -6.561602 34.31841 4.417207 13.04213 -0.6058116 -0 24.20413 -0 -11.75418 -7.691576 1.898509 1.711271 -13.06833 -2.899969 -0 17.76863 -0 9.20223 3.90812 13.0366 0.3546418 -7.997222 8.853324 1.181717 20.0236 -8.071875 -0.9857681 18.11267 4.462932 3.605634 -17.57405 2.500348 5.149841 -31.00688 16.17213 85.62651 25.66597 -15.09013 -0 0 28.61748 -27.81731 24.08465 14.34958 1.704423 -27.93725 -10.90355 -93.02305 2.298905 39.70891 0 0 -8.064205 16.23782 17.96752 -6.193038
-84.5293 85.19423 288.4714 3.801185 -6.614021 33.53356 4.417207 13.04213 -0.6058116 -0 24.20413 -0 -11.75418 -7.691576 1.898509 1.711271 -13.06833 -2.899969 -0 17.76863 -0 9.20223 3.90812 13.0366 0.3546418 -7.997222 8.853324 1.181717 20.0236 -8.071875 -0.9857681 18.11267 4.462932 3.605634 -17.57405 2.500348 5.149841 -31.00688 16.17213 85.62651 25.66597 -15.09013 -0 0 28.61748 -27.81731 24.08465 14.34958 1.704423 -27.93725 -10.90355 -93.02305 2.298905 39.70891 0 0 -8.064205 16.23782 17.96752 -6.193038
-80.48832 85.23116 292.0516 3.710416 -6.665209 32.74853 4.417207 13.04213 -0.6058116 -0 24.20413 -0 -11.75418 -7.691576 1.898509 1.711271 -13.06833 -2.899969 -0 17.76863 -0 9.20223 3.90812 13.0366 0.3546418 -7.997222 8.853324 1.181717 20.0236 -8.071875 -0.9857681 18.11267 4.462932 3.605634 -17.57405 2.500348 5.149841 -31.00688 16.17213 85.62651 25.66597 -15.09013 -0 0 28.61748 -27.81731 24.08465 14.34958 1.704423 -27.93725 -10.90355 -93.02305 2.298905 39.70891 0 0 -8.064205 16.23782 17.96752 -6.193038
-76.49654 85.26809 295.6866 3.618941 -6.715156 31.96335 4.417207 13.04213 -0.6058116 -0 24.20413 -0 -11.75418 -7.691576 1.898509 1.711271 -13.06833 -2.899969 -0 17.76863 -0 9.20223 3.90812 13.0366 0.3546418 -7.997222 8.853324 1.181717 20.0236 -8.071875 -0.9857681 18.11267 4.462932 3.605634 -17.57405 2.500348 5.149841 -31.00688 16.17213 85.62651 25.66597 -15.09013 -0 0 28.61748 -27.81731 24.08465 14.34958 1.704423 -27.93725 -10.90355 -93.02305 2.298905 39.70891 0 0 -8.064205 16.23782 17.96752 -6.193038
-72.55471 85.30502 299.3757 3.526775 -6.763854 31.17801 4.417207 13.04213 -0.6058116 -0 24.20413 -0 -11.75418 -7.691576 1.898509 1.711271 -13.06833 -2.899969 -0 17.76863 -0 9.20223 3.90812 13.0366 0.3546418 -7.997222 8.853324 1.181717 20.0236 -8.071875 -0.9857681 18.11267 4.462932 3.605634 -17.57405 2.500348 5.149841 -31.00688 16.17213 85.62651 25.66597 -15.09013 -0 0 28.61748 -27.81731 24.08465 14.34958 1.704423 -27.93725 -10.90355 -93.02305 2.298905 39.70891 0 0 -8.064205 16.23782 17.96752 -6.193038
-68.66356 85.34195 303.1181 3.433936 -6.811293 30.39251 4.417207 13.04213 -0.6058116 -0 24.20413 -0 -11.75418 -7.691576 1.898509 1.711271 -13.06833 -2.899969 -0 17.76863 -0 9.20223 3.90812 13.0366 0.3546418 -7.997222 8.853324 1.181717 20.0236 -8.071875 -0.9857681 18.11267 4.462932 3.605634 -17.57405 2.500348 5.149841 -31.00688 16.17213 85.62651 25.66597 -15.09013 -0 0 28.61748 -27.81731 24.08465 14.34958 1.704423 -27.93725 -10.90355 -93.02305 2.298905 39.70891 0 0 -8.064205 16.23782 17.96752 -6.193038
-64.82381 85.37888 306.9133 3.340442 -6.857464 29.60686 4.417207 13.04213 -0.6058116 -0 24.20413 -0 -11.75418 -7.691576 1.898509 1.711271 -13.06833 -2.899969 -0 17.76863 -0 9.20223 3.90812 13.0366 0.3546418 -7.997222 8.853324 1.181717 20.0236 -8.071875 -0.9857681 18.11267 4.462932 3.605634 -17.57405 2.500348 5.149841 -31.00688 16.17213 85.62651 25.66597 -15.09013 -0 0 28.61748 -27.81731 24.08465 14.34958 1.704423 -27.93725 -10.90355 -93.02305 2.298905 39.70891 0 0 -8.064205 16.23782 17.96752 -6.193038
-61.03618 85.41581 310.7606 3.246311 -6.902357 28.82105 4.417207 13.04213 -0.6058116 -0 24.20413 -0 -11.75418 -7.691576 1.898509 1.711271 -13.06833 -2.899969 -0 17.76863 -0 9.20223 3.90812 13.0366 0.3546418 -7.997222 8.853324 1.181717 20.0236 -8.071875 -0.9857681 18.11267 4.462932 3.605634 -17.57405 2.500348 5.149841 -31.00688 16.17213 85.62651 25.66597 -15.09013 -0 0 28.61748 -27.81731 24.08465 14.34958 1.704423 -27.93725 -10.90355 -93.02305 2.298905 39.70891 0 0 -8.064205 16.23782 17.96752 -6.193038
-57.30137 85.45274 314.6591 3.151559 -6.945964 28.0351 4.417207 13.04213 -0.6058116 -0 24.20413 -0 -11.75418 -7.691576 1.898509 1.711271 -13.06833 -2.899969 -0 17.76863 -0 9.20223 3.90812 13.0366 0.3546418 -7.997222 8.853324 1.181717 20.0236 -8.071875 -0.9857681 18.11267 4.462932 3.605634 -17.57405 2.500348 5.149841 -31.00688 16.17213 85.62651 25.66597 -15.09013 -0 0 28.61748 -27.81731 24.08465 14.34958 1.704423 -27.93725 -10.90355 -93.02305 2.298905 39.70891 0 0 -8.064205 16.23782 17.96752 -6.193038
-53.62007 85.48967 318.6082 3.056204 -6.988276 27.24901 4.417207 13.04213 -0.6058116 -0 24.20413 -0 -11.75418 -7.691576 1.898509 1.711271 -13.06833 -2.899969 -0 17.76863 -0 9.20223 3.90812 13.0366 0.3546418 -7.997222 8.853324 1.181717 20.0236 -8.071875 -0.9857681 18.11267 4.462932 3.605634 -17.57405 2.500348 5.149841 -31.00688 16.17213 85.62651 25.66597 -15.09013 -0 0 28.61748 -27.81731 24.08465 14.34958 1.704423 -27.93725 -10.90355 -93.02305 2.298905 39.70891 0 0 -8.064205 16.23782 17.96752 -6.193038
-49.99298 85.5266 322.6071 2.960265 -7.029286 26.46278 4.417207 13.04213 -0.6058116 -0 24.20413 -0 -11.75418 -7.691576 1.898509 1.711271 -13.06833 -2.899969 -0 17.76863 -0 9.20223 3.90812 13.0366 0.3546418 -7.997222 8.853324 1.181717 20.0236 -8.071875 -0.9857681 18.11267 4.462932 3.605634 -17.57405 2.500348 5.149841 -31.00688 16.17213 85.62651 25.66597 -15.09013 -0 0 28.61748 -27.81731 24.08465 14.34958 1.704423 -27.93725 -10.90355 -93.02305 2.298905 39.70891 0 0 -8.064205 16.23782 17.96752 -6.193038
-46.42076 85.56353 326.6551 2.86376 -7.068986 25.67641 4.417207 13.04213 -0.6058116 -0 24.20413 -0 -11.75418 -7.691576 1.898509 1.711271 -13.06833 -2.899969 -0 17.76863 -0 9.20223 3.90812 13.0366 0.3546418 -7.997222 8.853324 1.181717 20.0236 -8.071875 -0.9857681 18.11267 4.462932 3.605634 -17.57405 2.500348 5.149841 -31.00688 16.17213 85.62651 25.66597 -15.09013 -0 0 28.61748 -27.81731 24.08465 14.34958 1.704423 -27.93725 -10.90355 -93.02305 2.298905 39.70891 0 0 -8.064205 16.23782 17.96752 -6.193038
-42.90408 85.60046 330.7515 2.766707 -7.107367 24.8899 4.417207 13.04213 -0.6058116 -0 24.20413 -0 -11.75418 -7.691576 1.898509 1.711271 -13.06833 -2.899969 -0 17.76863 -0 9.20223 3.90812 13.0366 0.3546418 -7.997222 8.853324 1.181717 20.0236 -8.071875 -0.9857681 18.11267 4.462932 3.605634 -17.57405 2.500348 5.149841 -31.00688 16.17213 85.62651 25.66597 -15.09013 -0 0 28.61748 -27.81731 24.08465 14.34958 1.704423 -27.93725 -10.90355 -93.02305 2.298905 39.70891 0 0 -8.064205 16.23782 17.96752 -6.193038
-39.44359 85.63739 334.8955 2.669123 -7.144422 24.10327 4.417207 13.04213 -0.6058116 -0 24.20413 -0 -11.75418 -7.691576 1.898509 1.711271 -13.06833 -2.899969 -0 17.76863 -0 9.20223 3.90812 13.0366 0.3546418 -7.997222 8.853324 1.181717 20.0236 -8.071875 -0.9857681 18.11267 4.462932 3.605634 -17.57405 2.500348 5.149841 -31.00688 16.17213 85.62651 25.66597 -15.09013 -0 0 28.61748 -27.81731 24.08465 14.34958 1.704423 -27.93725 -10.90355 -93.02305 2.298905 39.70891 0 0 -8.064205 16.23782 17.96752 -6.193038
-36.03995 85.67432 339.0862 2.571029 -7.180144 23.31651 4.417207 13.04213 -0.6058116 -0 24.20413 -0 -11.75418 -7.691576 1.898509 1.711271 -13.06833 -2.899969 -0 17.76863 -0 9.20223 3.90812 13.0366 0.3546418 -7.997222 8.853324 1.181717 20.0236 -8.071875 -0.9857681 18.11267 4.462932 3.605634 -17.57405 2.500348 5.149841 -31.00688 16.17213 85.62651 25.66597 -15.09013 -0 0 28.61748 -27.81731 24.08465 14.34958 1.704423 -27.93725 -10.90355 -93.02305 2.298905 39.70891 0 0 -8.064205 16.23782 17.96752 -6.193038
-32.69377 85.71125 343.323 2.472442 -7.214527 22.52963 4.417207 13.04213 -0.6058116 -0 24.20413 -0 -11.75418 -7.691576 1.898509 1.711271 -13.06833 -2.899969 -0 17.76863 -0 9.20223 3.90812 13.0366 0.3546418 -7.997222 8.853324 1.181717 20.0236 -8.071875 -0.9857681 18.11267 4.462932 3.605634 -17.57405 2.500348 5.149841 -31.00688 16.17213 85.62651 25.66597 -15.09013 -0 0 28.61748 -27.81731 24.08465 14.34958 1.704423 -27.93725 -10.90355 -93.02305 2.298905 39.70891 0 0 -8.064205 16.23782 17.96752 -6.193038
-29.40569 85.74818 347.605 2.37338 -7.247563 21.74264 4.417207 13.04213 -0.6058116 -0 24.20413 -0 -11.75418 -7.691576 1.898509 1.711271 -13.06833 -2.899969 -0 17.76863 -0 9.20223 3.90812 13.0366 0.3546418 -7.997222 8.853324 1.181717 20.0236 -8.071875 -0.9857681 18.11267 4.462932 3.605634 -17.57405 2.500348 5.149841 -31.00688 16.17213 85.62651 25.66597 -15.09013 -0 0 28.61748 -27.81731 24.08465 14.34958 1.704423 -27.93725 -10.90355 -93.02305 2.298905 39.70891 0 0 -8.064205 16.23782 17.96752 -6.193038
-26.17631 85.78511 351.9315 2.273864 -7.279246 20.95553 4.417207 13.04213 -0.6058116 -0 24.20413 -0 -11.75418 -7.691576 1.898509 1.711271 -13.06833 -2.899969 -0 17.76863 -0 9.20223 3.90812 13.0366 0.3546418 -7.997222 8.853324 1.181717 20.0236 -8.071875 -0.9857681 18.11267 4.462932 3.605634 -17.57405 2.500348 5.149841 -31.00688 16.17213 85.62651 25.66597 -15.09013 -0 0 28.61748 -27.81731 24.08465 14.34958 1.704423 -27.93725 -10.90355 -93.02305 2.298905 39.70891 0 0 -8.064205 16.23782 17.96752 -6.193038
-23.00624 85.82204 356.3016 2.173911 -7.309569 20.16831 4.417207 13.04213 -0.6058116 -0 24.20413 -0 -11.75418 -7.691576 1.898509 1.711271 -13.06833 -2.899969 -0 17.76863 -0 9.20223 3.90812 13.0366 0.3546418 -7.997222 8.853324 1.181717 20.0236 -8.071875 -0.9857681 18.11267 4.462932 3.605634 -17.57405 2.500348 5.149841 -31.00688 16.17213 85.62651 25.66597 -15.09013 -0 0 28.61748 -27.81731 24.08465 14.34958 1.704423 -27.93725 -10.90355 -93.02305 2.298905 39.70891 0 0 -8.064205 16.23782 17.96752 -6.193038
-19.89606 85.85897 360.7146 2.073541 -7.338528 19.38099 4.417207 13.04213 -0.6058116 -0 24.20413 -0 -11.75418 -7.691576 1.898509 1.711271 -13.06833 -2.899969 -0 17.76863 -0 9.20223 3.90812 13.0366 0.3546418 -7.997222 8.853324 1.181717 20.0236 -8.071875 -0.9857681 18.11267 4.462932 3.605634 -17.57405 2.500348 5.149841 -31.00688 16.17213 85.62651 25.66597 -15.09013 -0 0 28.61748 -27.81731 24.08465 14.34958 1.704423 -27.93725 -10.90355 -93.02305 2.298905 39.70891 0 0 -8.064205 16.23782 17.96752 -6.193038
-16.84636 85.8959 365.1695 1.972773 -7.366115 18.59357 4.417207 13.04213 -0.6058116 -0 24.20413 -0 -11.75418 -7.691576 1.898509 1.711271 -13.06833 -2.899969 -0 17.76863 -0 9.20223 3.90812 13.0366 0.3546418 -7.997222 8.853324 1.181717 20.0236 -8.071875 -0.9857681 18.11267 4.462932 3.605634 -17.57405 2.500348 5.149841 -31.00688 16.17213 85.62651 25.66597 -15.09013 -0 0 28.61748 -27.81731 24.08465 14.34958 1.704423 -27.93725 -10.90355 -93.02305 2.298905 39.70891 0 0 -8.064205 16.23782 17.96752 -6.193038
